<svg xmlns="http://www.w3.org/2000/svg" viewBox="0 0 160 160">
  <title>Wood Atlas</title>
  <rect x="30" y="10" width="100" height="140" fill="#fff" />
  <g fill="none" stroke="#000" stroke-linecap="round" stroke-linejoin="round" stroke-width="6">
    <path d="M50 13c0 24 8 38 2 61-8 29-3 48 11 73" />
    <path d="M72 13c0 18-1 34-1 49" />
    <path d="M82 113c10-7 13-22 8-33-5-12-16-14-24-4-9 10-7 27 2 33 8 5 16 0 16-9 0-6-3-10-7-10-4 0-7 4-6 9" />
    <path d="M91 13c-1 29 5 46 11 64 9 26-1 47-11 70" />
    <path d="M109 13c-1 27 5 44 12 63 9 25-1 48-13 71" />
  </g>
  <rect
    x="30"
    y="10"
    width="100"
    height="140"
    fill="none"
    stroke="#000"
    stroke-linejoin="miter"
    stroke-width="7"
  />
</svg>
